<?xml version="1.0" standalone="no"?>
<!DOCTYPE svg PUBLIC "-//W3C//DTD SVG 20010904//EN"
 "http://www.w3.org/TR/2001/REC-SVG-20010904/DTD/svg10.dtd">
<svg version="1.0" xmlns="http://www.w3.org/2000/svg"
 width="64.000000pt" height="64.000000pt" viewBox="0 0 64.000000 64.000000"
 preserveAspectRatio="xMidYMid meet">

<g transform="translate(0.000000,64.000000) scale(0.100000,-0.100000)"
fill="#000000" stroke="none">
<path d="M311 505 c-156 -51 -291 -100 -300 -109 -23 -24 -5 -46 70 -83 35
-17 68 -33 73 -35 4 -2 18 -49 30 -103 15 -66 27 -101 37 -103 8 -1 39 15 68
37 l54 40 69 -54 c39 -30 74 -55 78 -55 24 0 41 49 95 280 57 244 58 253 40
266 -10 8 -21 14 -24 13 -3 0 -134 -43 -290 -94z m239 -171 c-28 -121 -53
-227 -56 -237 -5 -15 -19 -6 -87 49 -45 37 -88 73 -96 80 -12 11 2 30 87 120
95 100 110 124 78 124 -7 0 -77 -36 -156 -79 l-143 -79 -56 25 c-31 14 -63 28
-71 31 -8 3 111 47 265 98 154 51 281 91 283 89 2 -1 -20 -101 -48 -221z
m-208 9 c-11 -16 -36 -44 -56 -63 -21 -19 -41 -52 -48 -75 l-11 -40 -13 55
c-7 30 -10 58 -6 62 7 6 144 86 150 87 2 1 -6 -11 -16 -26z m-43 -157 c10 -11
7 -17 -10 -30 -28 -19 -29 -18 -22 17 6 30 15 34 32 13z"/>
</g>
</svg>
